<svg width="15" height="21" viewBox="0 0 15 21" fill="none" xmlns="http://www.w3.org/2000/svg">
<path d="M6.96401 20.1505C11.6607 20.1505 14.5832 16.6897 14.5832 12.2247C14.5832 10.5413 14.309 9.02135 12.3982 8.56468C12.8632 7.29135 14.2048 3.60801 14.2048 2.42801C14.2048 1.38885 13.5798 0.518013 12.4657 0.518013C10.6898 0.518013 9.09818 5.66218 8.59984 6.88885C8.21401 5.77551 6.40734 0.150513 4.81484 0.150513C3.57734 0.150513 2.99651 1.04468 2.99651 2.16968C2.99651 3.54885 4.35734 7.12301 4.85068 8.49801C4.60068 8.40801 4.32984 8.32968 4.05401 8.32968C3.12234 8.32968 2.13151 9.46635 2.13151 10.3847C2.13151 10.7322 2.32651 11.2205 2.44984 11.5447C0.981509 11.9355 0.416509 12.8963 0.416509 14.3455C0.412342 17.1655 3.13568 20.1505 6.96401 20.1505V20.1505ZM10.989 4.36968C11.149 3.88885 11.829 1.85801 12.4657 1.85801C12.8082 1.85801 12.8998 2.20551 12.8998 2.48301C12.8998 3.22885 11.364 7.35051 11.0248 8.26385L9.67151 8.02968L10.989 4.36968ZM4.24651 2.03801V2.03718C4.24651 1.57218 4.82401 0.25218 6.08901 3.87718L7.46651 7.79551C6.84568 7.74468 6.36401 7.67801 6.05818 7.85051C5.62401 6.72551 4.24651 3.17468 4.24651 2.03801V2.03801ZM4.15484 9.68135L4.15568 9.68218C5.32151 9.68218 6.82651 13.3772 6.82651 13.8772C6.82651 14.0763 6.63151 14.3222 6.40484 14.3222C5.57234 14.3222 3.34318 11.318 3.34318 10.5055C3.34651 10.2047 3.84818 9.68135 4.15484 9.68135V9.68135ZM2.81484 12.7397C3.26818 12.7397 4.97568 15.0955 4.97568 15.5955C4.97568 15.7872 4.66901 15.9197 4.51068 15.9197C3.86984 15.9197 3.61901 15.3138 2.47734 13.9122C1.29484 15.0722 3.29318 17.3063 4.79818 17.3063C5.83651 17.3063 6.51318 16.3613 6.31068 15.6655C6.45818 15.6655 6.64068 15.6772 6.77651 15.6422C6.82068 16.7005 7.13901 17.9622 8.43651 18.0522C8.43651 18.0172 8.51651 17.7747 8.51651 17.763C8.51651 17.083 8.09484 16.4897 8.09484 15.798C8.09484 14.6922 8.95818 13.6222 9.83401 12.9972C10.1523 12.763 10.539 12.618 10.9123 12.4855C11.299 12.3413 11.709 12.173 12.0023 11.8838C11.9582 11.4463 11.7757 11.0597 11.3298 11.0597C10.2273 11.0597 6.52984 11.2163 6.52984 9.50885C6.52984 9.24718 6.53401 8.99718 7.22318 8.99718C8.50901 8.99718 11.7732 9.30968 12.7282 10.1338C13.4482 10.763 13.6957 14.5555 11.494 16.958L11.4915 16.9588C10.3332 18.2088 8.85234 18.8572 7.12484 18.8572C4.76068 18.8572 2.89318 17.5838 1.99401 15.408C1.31318 13.713 2.14568 12.7397 2.81484 12.7397V12.7397ZM7.56568 12.0363C7.95318 12.158 8.35068 12.1938 8.74901 12.2713C8.45401 12.4822 8.19234 12.7405 7.94068 13.0172C7.82901 12.6855 7.69318 12.3613 7.56568 12.0363Z" fill="white"/>
</svg>
