<svg width="19" height="21" viewBox="0 0 19 21" fill="none" xmlns="http://www.w3.org/2000/svg">
<path d="M18.4994 7.61165C18.4994 6.47176 18.1334 5.40094 17.4347 4.4683C17.7008 3.5702 17.7674 2.43031 17.7008 1.1177C17.6676 0.56502 17.235 0.150513 16.7027 0.150513C16.4032 0.150513 13.8746 0.185055 12.4106 1.53221C11.1463 1.29041 9.81544 1.29041 8.51784 1.53221C7.08716 0.185055 4.55851 0.150513 4.22579 0.150513C3.69344 0.150513 3.26091 0.56502 3.22764 1.1177C3.12783 2.43031 3.22764 3.5702 3.49381 4.4683C2.79511 5.43549 2.42912 6.5063 2.42912 7.61165C2.42912 10.0296 4.22579 12.2058 6.95407 13.242C6.85426 13.4493 6.78771 13.6911 6.72117 13.9329C3.82653 13.622 2.46239 10.8932 2.39585 10.7895C2.16295 10.2714 1.56405 10.0642 1.06498 10.3405C0.565903 10.5823 0.366272 11.2041 0.632446 11.7222C0.69899 11.8949 2.52893 15.5909 6.55481 16.0054V19.1142C6.55481 19.7015 6.98735 20.1505 7.55296 20.1505H13.3755C13.9411 20.1505 14.3737 19.7015 14.3737 19.1142V15.0037C14.3737 14.3819 14.2406 13.7947 14.0077 13.2766C16.7027 12.2058 18.4994 10.0642 18.4994 7.61165Z" fill="white"/>
</svg>
