<svg width="21" height="21" viewBox="0 0 21 21" fill="none" xmlns="http://www.w3.org/2000/svg">
<path d="M14.1444 3.18506C10.6556 3.18506 7.78857 6.01265 7.78857 9.52989V19.4609C7.78857 19.8402 8.09946 20.1506 8.47942 20.1506H12.0718C12.4518 20.1506 12.7627 19.8402 12.7627 19.4609V9.80575C12.7627 9.04713 13.3844 8.42644 14.1444 8.42644C14.9043 8.42644 15.5261 9.04713 15.5261 9.80575V19.4609C15.5261 19.8402 15.8369 20.1506 16.2169 20.1506H19.8093C20.1893 20.1506 20.5001 19.8402 20.5001 19.4609V9.52989C20.5001 6.04713 17.6677 3.18506 14.1444 3.18506Z" fill="white"/>
<path d="M4.78325 6.42639H1.19085C0.810881 6.42639 0.5 6.73674 0.5 7.11605V19.4609C0.5 19.8402 0.810881 20.1505 1.19085 20.1505H4.78325C5.16321 20.1505 5.47409 19.8402 5.47409 19.4609V7.11605C5.47409 6.73674 5.16321 6.42639 4.78325 6.42639Z" fill="white"/>
<path d="M2.98705 0.150513C1.60535 0.150513 0.5 1.25396 0.5 2.63327C0.5 4.01258 1.60535 5.11603 2.98705 5.11603C4.36874 5.11603 5.47409 4.01258 5.47409 2.63327C5.47409 1.25396 4.36874 0.150513 2.98705 0.150513Z" fill="white"/>
</svg>
