<svg width="21" height="21" viewBox="0 0 21 21" fill="none" xmlns="http://www.w3.org/2000/svg">
<path d="M20.2665 0.520156C19.9331 0.121485 19.3665 0.021818 18.9331 0.320821L16.9998 1.64972C16.0998 0.686268 14.8331 0.154708 13.4665 0.154708C10.7665 0.154708 8.53313 2.34739 8.53313 5.07164C8.53313 5.47031 8.56646 5.83576 8.66646 6.2012C6.33313 5.70287 4.93313 4.00852 4.3998 0.952048C4.33313 0.553378 4.03313 0.254375 3.63313 0.154708C3.26646 0.0550405 2.86646 0.221153 2.63313 0.520156C2.56646 0.586601 -2.93354 8.22778 5.03313 14.7062C4.26646 16.3341 1.96646 17.7294 1.06646 18.1945C0.63313 18.3939 0.43313 18.859 0.53313 19.3241C0.63313 19.7892 1.03313 20.0882 1.4998 20.0882H3.23313C13.3665 20.0882 17.9665 15.0716 18.0665 3.84241L20.1665 1.84906C20.5665 1.51683 20.5998 0.918826 20.2665 0.520156Z" fill="white"/>
</svg>
